{"title":"Young Money Ft. Euro, Birdman &amp; Lil Wayne - We Alright [Expl","uid":10891009,"size":67208892,"categoryP":"video","categoryS":"music_videos","magnet":"?xt=urn:btih:b0361317c2132a927f90489c0b7eb04733ae1e3c&amp;dn=Young+Money+Ft.+Euro%2C+Birdman+%26amp%3B+Lil+Wayne+-+We+Alright+%5BExpl&amp;tr=udp%3A%2F%2Ftracker.openbittorrent.com%3A80&amp;tr=udp%3A%2F%2Fopen.demonii.com%3A1337&amp;tr=udp%3A%2F%2Ftracker.coppersurfer.tk%3A6969&amp;tr=udp%3A%2F%2Fexodus.desync.com%3A6969","seeders":1,"leechers":0,"uploader":"Sbyky","files":1,"time":1409116459,"description":"\n\nGeneral\nComplete name                            : Young Money Ft. Euro, Birdman &amp; Lil Wayne - We Alright [Explicit] 720p [Sbyky].MP4\nFormat                                   : MPEG-4\nFormat profile                           : Base Media\nCodec ID                                 : isom\nFile size                                : 64.1 MiB\nDuration                                 : 5mn 21s\nOverall bit rate mode                    : Variable\nOverall bit rate                         : 1 673 Kbps\nEncoded date                             : UTC 2014-02-21 12:52:37\nTagged date                              : UTC 2014-02-21 12:52:37\n\nVideo\nID                                       : 1\nFormat                                   : AVC\nFormat/Info                              : Advanced Video Codec\nFormat profile                           : &lt;a class=&quot;__cf_email__&quot; href=&quot;/cdn-cgi/l/email-protection&quot; data-cfemail=&quot;a8e5c9c1c6e8e49b8699&quot;&gt;[email&amp;#160;protected]&lt;/a&gt;&lt;script cf-hash='f9e31' type=&quot;text/javascript&quot;&gt;\n/* &lt;![CDATA[ */!function(){try{var t=&quot;currentScript&quot;in document?document.currentScript:function(){for(var t=document.getElementsByTagName(&quot;script&quot;),e=t.length;e--;)if(t[e].getAttribute(&quot;cf-hash&quot;))return t[e]}();if(t&amp;&amp;t.previousSibling){var e,r,n,i,c=t.previousSibling,a=c.getAttribute(&quot;data-cfemail&quot;);if(a){for(e=&quot;&quot;,r=parseInt(a.substr(0,2),16),n=2;a.length-n;n+=2)i=parseInt(a.substr(n,2),16)^r,e+=String.fromCharCode(i);e=document.createTextNode(e),c.parentNode.replaceChild(e,c)}}}catch(u){}}();/* ]]&gt; */&lt;/script&gt;\nFormat settings, CABAC                   : Yes\nFormat settings, ReFrames                : 3 frames\nCodec ID                                 : avc1\nCodec ID/Info                            : Advanced Video Coding\nDuration                                 : 5mn 21s\nDuration_LastFrame                       : -41ms\nBit rate                                 : 1 544 Kbps\nWidth                                    : 1 280 pixels\nHeight                                   : 720 pixels\nDisplay aspect ratio                     : 16:9\nFrame rate mode                          : Constant\nFrame rate                               : 23.976 fps\nColor space                              : YUV\nChroma subsampling                       : 4:2:0\nBit depth                                : 8 bits\nScan type                                : Progressive\nBits/(Pixel*Frame)                       : 0.070\nStream size                              : 59.1 MiB (92%)\nEncoded date                             : UTC 2014-02-21 12:52:37\nTagged date                              : UTC 2014-02-21 12:52:37\n\nAudio\nID                                       : 2\nFormat                                   : AAC\nFormat/Info                              : Advanced Audio Codec\nFormat profile                           : LC\nCodec ID                                 : 40\nDuration                                 : 5mn 21s\nBit rate mode                            : Variable\nBit rate                                 : 126 Kbps\nChannel(s)                               : 2 channels\nChannel positions                        : Front: L R\nSampling rate                            : 44.1 KHz\nCompression mode                         : Lossy\nStream size                              : 4.81 MiB (8%)\nEncoded date                             : UTC 2014-02-21 12:52:30\nTagged date                              : UTC 2014-02-21 12:52:30\n\nShared By Sbyky\n","torrent":{"xt":"urn:btih:b0361317c2132a927f90489c0b7eb04733ae1e3c","amp;dn":"Young+Money+Ft.+Euro%2C+Birdman+%26amp%3B+Lil+Wayne+-+We+Alright+%5BExpl","amp;tr":["udp%3A%2F%2Ftracker.openbittorrent.com%3A80","udp%3A%2F%2Fopen.demonii.com%3A1337","udp%3A%2F%2Ftracker.coppersurfer.tk%3A6969","udp%3A%2F%2Fexodus.desync.com%3A6969"],"infoHash":"b0361317c2132a927f90489c0b7eb04733ae1e3c","infoHashBuffer":{"type":"Buffer","data":[176,54,19,23,194,19,42,146,127,144,72,156,11,126,176,71,51,174,30,60]},"announce":[],"urlList":[]}}